<svg width="64" height="64" viewBox="0 0 64 64" fill="none" xmlns="http://www.w3.org/2000/svg">
<path d="M32 58C46.3594 58 58 46.3594 58 32C58 17.6406 46.3594 6 32 6C17.6406 6 6 17.6406 6 32C6 46.3594 17.6406 58 32 58Z" stroke="black" stroke-opacity="0.25"/>
<path d="M32 63C49.1208 63 63 49.1208 63 32C63 14.8792 49.1208 1 32 1C14.8792 1 1 14.8792 1 32C1 49.1208 14.8792 63 32 63Z" stroke="black" stroke-opacity="0.1" stroke-width="0.5"/>
<path d="M32 54C44.1503 54 54 44.1503 54 32C54 19.8497 44.1503 10 32 10C19.8497 10 10 19.8497 10 32C10 44.1503 19.8497 54 32 54Z" stroke="black" stroke-opacity="0.4"/>
<path d="M32 50C41.9411 50 50 41.9411 50 32C50 22.0589 41.9411 14 32 14C22.0589 14 14 22.0589 14 32C14 41.9411 22.0589 50 32 50Z" fill="#5764EC"/>
<path d="M29.8 27.496C30.1947 27.24 30.6107 27.0533 31.048 26.936C31.496 26.8187 31.976 26.76 32.488 26.76C32.968 26.76 33.4 26.8293 33.784 26.968C34.1787 27.096 34.5147 27.2773 34.792 27.512C35.0693 27.7467 35.2827 28.024 35.432 28.344C35.5813 28.664 35.656 29.0107 35.656 29.384C35.656 30.0133 35.4907 30.5307 35.16 30.936C34.84 31.3307 34.4453 31.6187 33.976 31.8C34.584 31.928 35.0747 32.2107 35.448 32.648C35.8213 33.0747 36.008 33.592 36.008 34.2C36.008 34.7227 35.9067 35.1707 35.704 35.544C35.512 35.9173 35.2453 36.2267 34.904 36.472C34.5627 36.7067 34.168 36.8827 33.72 37C33.272 37.1067 32.7973 37.16 32.296 37.16C31.784 37.16 31.2933 37.112 30.824 37.016C30.3547 36.92 29.944 36.7813 29.592 36.6L29.992 35.224C30.3333 35.3733 30.6587 35.4907 30.968 35.576C31.2773 35.6613 31.6507 35.704 32.088 35.704C32.3547 35.704 32.6053 35.6773 32.84 35.624C33.0853 35.56 33.2987 35.464 33.48 35.336C33.6613 35.208 33.8 35.048 33.896 34.856C34.0027 34.664 34.056 34.4347 34.056 34.168C34.056 33.6667 33.88 33.288 33.528 33.032C33.176 32.7653 32.6853 32.632 32.056 32.632H30.888V31.224H31.752C32.36 31.224 32.84 31.0907 33.192 30.824C33.5547 30.5467 33.736 30.1413 33.736 29.608C33.736 29.1813 33.5867 28.84 33.288 28.584C33 28.328 32.6373 28.2 32.2 28.2C31.8907 28.2 31.5973 28.2427 31.32 28.328C31.0427 28.4133 30.7333 28.5573 30.392 28.76L29.8 27.496Z" fill="white"/>
</svg>
