<svg width="64" height="64" viewBox="0 0 64 64" fill="none" xmlns="http://www.w3.org/2000/svg">
<path d="M32 58C46.3594 58 58 46.3594 58 32C58 17.6406 46.3594 6 32 6C17.6406 6 6 17.6406 6 32C6 46.3594 17.6406 58 32 58Z" stroke="black" stroke-opacity="0.25"/>
<path d="M32 63C49.1208 63 63 49.1208 63 32C63 14.8792 49.1208 1 32 1C14.8792 1 1 14.8792 1 32C1 49.1208 14.8792 63 32 63Z" stroke="black" stroke-opacity="0.1" stroke-width="0.5"/>
<path d="M32 54C44.1503 54 54 44.1503 54 32C54 19.8497 44.1503 10 32 10C19.8497 10 10 19.8497 10 32C10 44.1503 19.8497 54 32 54Z" stroke="black" stroke-opacity="0.4"/>
<path d="M32 50C41.9411 50 50 41.9411 50 32C50 22.0589 41.9411 14 32 14C22.0589 14 14 22.0589 14 32C14 41.9411 22.0589 50 32 50Z" fill="#5764EC"/>
<path d="M35.008 26.888V28.376L31.408 28.408L31.152 30.648C31.3013 30.6267 31.4347 30.6107 31.552 30.6C31.6693 30.5893 31.8027 30.584 31.952 30.584C32.3893 30.584 32.816 30.6427 33.232 30.76C33.648 30.8773 34.016 31.064 34.336 31.32C34.656 31.5653 34.912 31.8853 35.104 32.28C35.3067 32.664 35.408 33.1333 35.408 33.688C35.408 34.168 35.3227 34.6213 35.152 35.048C34.992 35.464 34.7413 35.832 34.4 36.152C34.0587 36.4613 33.632 36.7067 33.12 36.888C32.608 37.0693 32.0107 37.16 31.328 37.16C30.8587 37.16 30.416 37.112 30 37.016C29.5947 36.92 29.2373 36.7973 28.928 36.648L29.328 35.224C29.5947 35.352 29.8773 35.4587 30.176 35.544C30.4853 35.6293 30.8213 35.672 31.184 35.672C31.92 35.672 32.48 35.5067 32.864 35.176C33.2587 34.8347 33.456 34.3707 33.456 33.784C33.456 33.1653 33.2373 32.7013 32.8 32.392C32.3733 32.0827 31.8347 31.928 31.184 31.928C30.896 31.928 30.608 31.9493 30.32 31.992C30.032 32.0347 29.7493 32.0827 29.472 32.136L29.968 26.92L35.008 26.888Z" fill="white"/>
</svg>
