<svg width="64" height="64" viewBox="0 0 64 64" fill="none" xmlns="http://www.w3.org/2000/svg">
<path d="M32 58C46.3594 58 58 46.3594 58 32C58 17.6406 46.3594 6 32 6C17.6406 6 6 17.6406 6 32C6 46.3594 17.6406 58 32 58Z" stroke="black" stroke-opacity="0.25"/>
<path d="M32 63C49.1208 63 63 49.1208 63 32C63 14.8792 49.1208 1 32 1C14.8792 1 1 14.8792 1 32C1 49.1208 14.8792 63 32 63Z" stroke="black" stroke-opacity="0.1" stroke-width="0.5"/>
<path d="M32 54C44.1503 54 54 44.1503 54 32C54 19.8497 44.1503 10 32 10C19.8497 10 10 19.8497 10 32C10 44.1503 19.8497 54 32 54Z" stroke="black" stroke-opacity="0.4"/>
<path d="M32 50C41.9411 50 50 41.9411 50 32C50 22.0589 41.9411 14 32 14C22.0589 14 14 22.0589 14 32C14 41.9411 22.0589 50 32 50Z" fill="#5764EC"/>
<path d="M33.168 26.76C33.5413 26.76 33.8933 26.7867 34.224 26.84C34.5547 26.8933 34.8747 26.9893 35.184 27.128L34.752 28.568C34.528 28.4507 34.288 28.3653 34.032 28.312C33.7867 28.248 33.5147 28.216 33.216 28.216C32.8 28.216 32.432 28.2907 32.112 28.44C31.8027 28.5893 31.536 28.7973 31.312 29.064C31.0987 29.32 30.928 29.6293 30.8 29.992C30.6827 30.3547 30.6133 30.7493 30.592 31.176C30.8693 30.8773 31.2 30.6587 31.584 30.52C31.9787 30.3707 32.3893 30.296 32.816 30.296C33.2747 30.296 33.7013 30.3707 34.096 30.52C34.5013 30.6693 34.848 30.888 35.136 31.176C35.424 31.4533 35.648 31.8 35.808 32.216C35.9787 32.6213 36.064 33.0853 36.064 33.608C36.064 34.1413 35.9733 34.6267 35.792 35.064C35.6213 35.4907 35.376 35.864 35.056 36.184C34.7467 36.4933 34.368 36.7333 33.92 36.904C33.4827 37.0747 32.9973 37.16 32.464 37.16C31.9947 37.16 31.5307 37.0747 31.072 36.904C30.624 36.7333 30.2187 36.4613 29.856 36.088C29.4933 35.704 29.2 35.208 28.976 34.6C28.752 33.9813 28.64 33.2293 28.64 32.344C28.64 31.3413 28.768 30.488 29.024 29.784C29.28 29.0693 29.6213 28.488 30.048 28.04C30.4747 27.592 30.9547 27.2667 31.488 27.064C32.032 26.8613 32.592 26.76 33.168 26.76ZM30.576 33.368C30.576 33.6987 30.6187 34.008 30.704 34.296C30.8 34.584 30.928 34.84 31.088 35.064C31.248 35.2773 31.4453 35.448 31.68 35.576C31.9147 35.6933 32.176 35.752 32.464 35.752C32.72 35.752 32.9547 35.6987 33.168 35.592C33.3813 35.4853 33.5627 35.336 33.712 35.144C33.8613 34.952 33.9733 34.728 34.048 34.472C34.1333 34.216 34.176 33.944 34.176 33.656C34.176 33.0053 34.016 32.5253 33.696 32.216C33.376 31.896 32.9493 31.736 32.416 31.736C32.032 31.736 31.7013 31.8213 31.424 31.992C31.1573 32.1627 30.9493 32.3547 30.8 32.568C30.6507 32.7813 30.576 33.048 30.576 33.368Z" fill="white"/>
</svg>
