<svg width="64" height="64" viewBox="0 0 64 64" fill="none" xmlns="http://www.w3.org/2000/svg">
<path d="M32 58C46.3594 58 58 46.3594 58 32C58 17.6406 46.3594 6 32 6C17.6406 6 6 17.6406 6 32C6 46.3594 17.6406 58 32 58Z" stroke="black" stroke-opacity="0.25"/>
<path d="M32 63C49.1208 63 63 49.1208 63 32C63 14.8792 49.1208 1 32 1C14.8792 1 1 14.8792 1 32C1 49.1208 14.8792 63 32 63Z" stroke="black" stroke-opacity="0.1" stroke-width="0.5"/>
<path d="M32 54C44.1503 54 54 44.1503 54 32C54 19.8497 44.1503 10 32 10C19.8497 10 10 19.8497 10 32C10 44.1503 19.8497 54 32 54Z" stroke="black" stroke-opacity="0.4"/>
<path d="M32 50C41.9411 50 50 41.9411 50 32C50 22.0589 41.9411 14 32 14C22.0589 14 14 22.0589 14 32C14 41.9411 22.0589 50 32 50Z" fill="#5764EC"/>
<path d="M32.552 28.232C32.2107 28.232 31.8853 28.296 31.576 28.424C31.2773 28.5413 30.952 28.7387 30.6 29.016L29.816 27.8C30.2533 27.4373 30.7013 27.176 31.16 27.016C31.6293 26.8453 32.152 26.76 32.728 26.76C33.2507 26.76 33.7147 26.8347 34.12 26.984C34.5253 27.1333 34.8613 27.3413 35.128 27.608C35.4053 27.8747 35.6133 28.1893 35.752 28.552C35.8907 28.9147 35.96 29.3093 35.96 29.736C35.96 30.4613 35.688 31.2187 35.144 32.008C34.6107 32.7867 33.8587 33.6453 32.888 34.584L31.896 35.512H36.12V37H29.976L29.64 35.72L31.032 34.328C31.5867 33.7733 32.056 33.2827 32.44 32.856C32.824 32.4293 33.1333 32.0453 33.368 31.704C33.6027 31.352 33.7733 31.032 33.88 30.744C33.9867 30.4453 34.04 30.152 34.04 29.864C34.04 29.352 33.9067 28.952 33.64 28.664C33.3733 28.376 33.0107 28.232 32.552 28.232Z" fill="white"/>
</svg>
