<svg width="64" height="64" viewBox="0 0 64 64" fill="none" xmlns="http://www.w3.org/2000/svg">
<path d="M32 58C46.3594 58 58 46.3594 58 32C58 17.6406 46.3594 6 32 6C17.6406 6 6 17.6406 6 32C6 46.3594 17.6406 58 32 58Z" stroke="black" stroke-opacity="0.25"/>
<path d="M32 63C49.1208 63 63 49.1208 63 32C63 14.8792 49.1208 1 32 1C14.8792 1 1 14.8792 1 32C1 49.1208 14.8792 63 32 63Z" stroke="black" stroke-opacity="0.1" stroke-width="0.5"/>
<path d="M32 54C44.1503 54 54 44.1503 54 32C54 19.8497 44.1503 10 32 10C19.8497 10 10 19.8497 10 32C10 44.1503 19.8497 54 32 54Z" stroke="black" stroke-opacity="0.4"/>
<path d="M32 50C41.9411 50 50 41.9411 50 32C50 22.0589 41.9411 14 32 14C22.0589 14 14 22.0589 14 32C14 41.9411 22.0589 50 32 50Z" fill="#5764EC"/>
<path d="M32.768 26.92H34.832V33.112H36.336V34.6H34.832V37H33.04V34.6H28.32V33.4L32.768 26.92ZM32.208 30.344L30.304 33.112H33.04V30.488L33.12 28.712H33.088L32.208 30.344Z" fill="white"/>
</svg>
